<svg xmlns="http://www.w3.org/2000/svg" version="1.1" xml:space="preserve" width="520.984" height="96.694" viewBox="0 0 520.984 96.694"><defs><clipPath clipPathUnits="userSpaceOnUse" id="a"><path d="M0 72.521h390.738V0H0z"/></clipPath></defs><g clip-path="url(#a)" transform="matrix(1.33333 0 0 -1.33333 0 96.694)"><path d="M87.737 11.525c-.596.264-1.314.456-1.91.456-2.154 0-3.363-1.56-3.363-3.73 0-2.033 1.226-3.732 3.241-3.732.7 0 1.348.157 2.014.402l.105-1.033c-.753-.263-1.454-.315-2.295-.315-2.872 0-4.273 2.19-4.273 4.677 0 2.75 1.77 4.677 4.414 4.677a6.672 6.672 0 0 0 2.154-.35zM96.37 8.88c0 1.56-.63 3.102-2.277 3.102-1.629 0-2.628-1.63-2.628-3.101zm.543-4.816c-.77-.316-1.769-.491-2.592-.491-2.96 0-4.064 1.997-4.064 4.677 0 2.733 1.506 4.678 3.766 4.678 2.522 0 3.556-2.033 3.556-4.433v-.56h-6.114c0-1.892 1.016-3.415 2.943-3.415.806 0 1.98.332 2.505.665zM100.904 16.921h1.104V3.783h-1.104zM111.465 8.88c0 1.56-.63 3.102-2.277 3.102-1.63 0-2.628-1.63-2.628-3.101zm.543-4.816c-.771-.316-1.77-.491-2.592-.491-2.961 0-4.064 1.997-4.064 4.677 0 2.733 1.506 4.678 3.766 4.678 2.522 0 3.556-2.033 3.556-4.433v-.56h-6.114c0-1.892 1.016-3.415 2.943-3.415.806 0 1.98.332 2.505.665zM119.642 11.981c-2.014 0-2.645-2.103-2.645-3.73 0-1.63.683-3.732 2.645-3.732 2.102 0 2.645 1.996 2.645 3.731 0 1.734-.543 3.731-2.645 3.731m-3.749 4.94h1.104v-5.71h.035c.158.437 1.033 1.716 2.785 1.716 2.628 0 3.68-1.963 3.68-4.677 0-2.645-1.228-4.677-3.68-4.677-1.279 0-2.189.49-2.785 1.63h-.035v-1.42h-1.104zM126.96 10.72c0 .98 0 1.349-.07 1.997h1.105V11h.034c.404.998 1.157 1.928 2.295 1.928.263 0 .578-.053.77-.105v-1.157a2.865 2.865 0 0 1-.805.106c-1.751 0-2.224-1.963-2.224-3.574V3.783h-1.104zM139.045 8.285h-.315c-1.91 0-4.187-.193-4.187-2.154 0-1.174.841-1.612 1.857-1.612 2.593 0 2.645 2.26 2.645 3.223zm.105-3.065h-.035c-.49-1.07-1.734-1.647-2.838-1.647-2.54 0-2.942 1.716-2.942 2.523 0 2.995 3.188 3.134 5.5 3.134h.21v.456c0 1.525-.543 2.295-2.032 2.295-.928 0-1.804-.21-2.628-.735v1.068c.684.332 1.84.614 2.628.614 2.207 0 3.136-.999 3.136-3.33v-3.94c0-.719 0-1.262.087-1.875h-1.086zM147.853 11.771h-2.032v-5.78c0-.806.298-1.471 1.191-1.471.421 0 .701.087 1.016.209l.07-.91a4.01 4.01 0 0 0-1.349-.246c-1.96 0-2.032 1.348-2.032 2.977v5.221h-1.752v.945h1.752v2.156l1.104.385v-2.54h2.032zM151.057 12.717h1.104V3.783h-1.104zm1.103 2.383h-1.104v1.471h1.104zM156.17 10.615c0 .683 0 1.383-.07 2.102h1.069v-1.594h.035c.367.805 1.033 1.805 2.89 1.805 2.207 0 3.048-1.473 3.048-3.434v-5.71h-1.104v5.43c0 1.68-.596 2.767-2.12 2.767-2.014 0-2.644-1.769-2.644-3.259V3.783h-1.104zM170.39 4.729c1.998 0 2.716 1.893 2.716 3.52 0 2.156-.63 3.733-2.645 3.733-2.102 0-2.645-1.997-2.645-3.732 0-1.751.7-3.521 2.575-3.521m3.818-.21c0-2.487-1.121-4.52-4.186-4.52-1.174 0-2.242.334-2.697.474l.087 1.104a6.043 6.043 0 0 1 2.627-.631c2.838 0 3.083 2.067 3.083 4.59h-.035c-.595-1.297-1.576-1.752-2.715-1.752-2.855 0-3.766 2.487-3.766 4.466 0 2.715 1.05 4.678 3.679 4.678 1.19 0 1.96-.158 2.785-1.226h.035v1.015h1.103zM187.832 11.981c-2.015 0-2.646-2.103-2.646-3.73 0-1.63.684-3.732 2.646-3.732 2.103 0 2.646 1.996 2.646 3.731 0 1.734-.543 3.731-2.646 3.731m-3.749 4.94h1.103v-5.71h.036c.158.437 1.034 1.716 2.785 1.716 2.628 0 3.679-1.963 3.679-4.677 0-2.645-1.226-4.677-3.679-4.677-1.279 0-2.19.49-2.785 1.63h-.036v-1.42h-1.103zM200.179 8.285h-.315c-1.91 0-4.187-.193-4.187-2.154 0-1.174.84-1.612 1.857-1.612 2.592 0 2.645 2.26 2.645 3.223zm.105-3.065h-.035c-.49-1.07-1.734-1.647-2.838-1.647-2.54 0-2.943 1.716-2.943 2.523 0 2.995 3.189 3.134 5.5 3.134h.21v.456c0 1.525-.542 2.295-2.031 2.295-.928 0-1.804-.21-2.627-.735v1.068c.682.332 1.839.614 2.627.614 2.208 0 3.136-.999 3.136-3.33v-3.94c0-.719 0-1.262.087-1.875h-1.086zM208.777 11.981c-2.016 0-2.645-2.103-2.645-3.73 0-1.63.682-3.732 2.645-3.732 2.102 0 2.645 1.996 2.645 3.731 0 1.734-.543 3.731-2.645 3.731m-3.75 4.94h1.105v-5.71h.034c.158.437 1.035 1.716 2.785 1.716 2.629 0 3.68-1.963 3.68-4.677 0-2.645-1.227-4.677-3.68-4.677-1.278 0-2.19.49-2.785 1.63h-.034v-1.42h-1.105zM218.757 2.452c-.42-1.227-1.05-2.452-2.295-2.452-.402 0-.822.053-1.19.14l.104.946c.211-.07.42-.14.824-.14.946 0 1.26.788 1.612 1.944l.226.788-3.17 9.04h1.21l2.503-7.463-.017.016h.035l2.576 7.446h1.156zM236.216 8.285h-.314c-1.91 0-4.188-.193-4.188-2.154 0-1.174.842-1.612 1.857-1.612 2.592 0 2.645 2.26 2.645 3.223zm.105-3.065h-.035c-.49-1.07-1.734-1.647-2.838-1.647-2.539 0-2.94 1.716-2.94 2.523 0 2.995 3.187 3.134 5.5 3.134h.208v.456c0 1.525-.543 2.295-2.03 2.295-.929 0-1.806-.21-2.628-.735v1.068c.681.332 1.838.614 2.627.614 2.207 0 3.135-.999 3.135-3.33v-3.94c0-.719 0-1.262.087-1.875h-1.086zM241.171 10.615c0 .683 0 1.383-.07 2.102h1.07v-1.594h.033c.37.805 1.035 1.805 2.891 1.805 2.207 0 3.05-1.473 3.05-3.434v-5.71h-1.105v5.43c0 1.68-.596 2.767-2.119 2.767-2.016 0-2.646-1.769-2.646-3.259V3.783h-1.104zM255.462 4.52c1.961 0 2.645 2.102 2.645 3.73 0 1.628-.684 3.731-2.645 3.731-2.102 0-2.645-1.997-2.645-3.732 0-1.734.543-3.73 2.645-3.73m3.748-.736h-1.103v1.42h-.036c-.595-1.14-1.505-1.63-2.785-1.63-2.45 0-3.678 2.032-3.678 4.676 0 2.715 1.051 4.678 3.678 4.678 1.752 0 2.627-1.279 2.785-1.717h.036v5.71h1.103zM275.005 11.525c-.596.264-1.313.456-1.908.456-2.155 0-3.363-1.56-3.363-3.73 0-2.033 1.226-3.732 3.24-3.732.701 0 1.35.157 2.013.402l.106-1.033c-.752-.263-1.453-.315-2.295-.315-2.873 0-4.273 2.19-4.273 4.677 0 2.75 1.77 4.677 4.414 4.677a6.672 6.672 0 0 0 2.154-.35zM278.19 16.92h1.105v-5.71h.035c.472.982 1.472 1.718 2.785 1.718 2.4 0 3.049-1.595 3.049-3.802V3.783h-1.104v5.325c0 1.542-.3 2.874-2.12 2.874-1.962 0-2.645-1.857-2.645-3.416V3.783h-1.104zM289.154 12.717h1.104V3.783h-1.104zm1.103 2.383h-1.104v1.471h1.104zM294.267 16.921h1.104V3.783h-1.104zM302.709 4.52c1.96 0 2.645 2.102 2.645 3.73 0 1.628-.684 3.731-2.645 3.731-2.102 0-2.645-1.997-2.645-3.732 0-1.734.543-3.73 2.645-3.73m3.748-.736h-1.103v1.42h-.036c-.595-1.14-1.505-1.63-2.785-1.63-2.452 0-3.679 2.032-3.679 4.676 0 2.715 1.051 4.678 3.678 4.678 1.752 0 2.627-1.279 2.785-1.717h.036v5.71h1.103zM8.4 54.766V44.36c0-3.198.62-4.296 4.104-4.248 4.01 0 7.398 2.005 7.398 7.064 0 5.202-3.818 7.589-8.734 7.589zm0 1.384h3.007c4.582 0 6.873 2.148 6.873 6.06 0 2.866-1.193 6.063-6.825 6.063-1.576 0-2.244-.143-2.626-.286-.286-.096-.429-.286-.429-1.241zm4.677 13.508c3.437 0 5.394-.574 6.97-1.671 1.622-1.146 2.481-2.864 2.481-5.25 0-4.2-3.962-6.253-6.253-6.825v-.096c4.344-.621 8.257-3.198 8.257-8.02 0-3.387-1.67-5.774-4.439-7.35-2.434-1.335-5.488-1.813-9.116-1.813H0v1.098c4.008.286 4.39.62 4.39 5.823v17.183c-.047 5.202-.334 5.536-4.104 5.822v1.099zM40.185 52.57c.668 0 .859.239.859 1.527 0 1.91-1.527 4.2-4.01 4.2-2.29 0-4.772-2.338-5.154-5.87zm4.773-9.833c-2.626-3.722-5.92-4.677-7.208-4.677-6.061 0-9.69 4.534-9.69 10.07 0 6.397 4.488 11.79 10.216 11.79 3.722 0 6.825-3.436 6.825-6.634 0-1.48-.143-1.575-1.002-1.766-.668-.143-6.587-.62-12.505-.811-.143-7.112 4.343-9.594 7.779-9.594 1.576 0 3.007.573 4.916 2.29zM59.085 50.184c-1.05-.43-3.914-1.72-4.82-2.196-1.671-.907-2.483-1.861-2.483-3.58 0-2.53 1.719-3.723 3.151-3.723 1.097 0 2.863.86 4.152 1.862zM61.71 38.06c-1.623.287-2.338 1.91-2.625 3.103-2.004-1.29-4.582-3.103-5.584-3.103-3.484 0-5.728 2.864-5.728 5.489 0 2.196 1.146 3.819 3.627 4.82 2.339.956 6.253 2.34 7.685 3.342v1.623c0 2.959-1.384 4.534-3.914 4.534-2.338 0-3.341-2.004-3.866-4.01-.143-.572-.573-.906-1.097-.906-.764 0-2.053.764-2.053 1.623 0 .62.573 1.289 1.623 2.052 1.145.859 3.961 2.673 7.35 3.293 1.337 0 2.816-.43 3.771-1.145 1.575-1.241 1.813-2.911 1.813-4.63v-10.74c0-1.765.621-2.576 1.337-2.576.382 0 1.193.19 2.053.62l.429-1.05zM83.808 55.29c0 1.767-.477 2.149-1.479 2.244l-2.292.287v1.002c2.196.095 5.68.572 7.494.859V42.977c0-1.91.382-2.053 1.384-2.101l2.101-.095v-1.05c-2.005-.238-5.49-1.193-6.92-1.67l-.288.286v3.389c-1.098-.86-2.386-1.814-3.627-2.53-1.384-.811-2.578-1.145-3.77-1.145-3.39 0-5.967 1.766-5.967 6.539v10.69c0 1.767-.429 2.149-1.528 2.292l-1.479.239v1.002c1.432.095 4.916.572 6.73.859V46.27c0-4.44 2.052-5.49 4.2-5.49 1.67 0 3.484.765 5.441 2.435zM99.228 44.933c0-3.723 1.766-4.39 3.055-4.39.859 0 1.909.381 2.816.906l.477-1.05-3.913-1.957c-.478-.239-1.1-.382-1.433-.382-3.054 0-4.725 1.957-4.725 5.775v13.7H92.02l-.191.476 1.384 1.337h2.29v3.006l3.104 3.15h.62v-6.156h5.537c.38-.526.238-1.29-.334-1.814h-5.203zM114.927 68.56c0-1.433-1.098-2.578-2.481-2.578-1.337 0-2.483 1.145-2.483 2.577 0 1.48 1.146 2.625 2.483 2.625 1.383 0 2.48-1.145 2.48-2.625m-.62-25.63c0-2.673.239-2.912 3.437-3.199v-1.097h-10.548v1.097c3.15.287 3.389.526 3.389 3.2v11.024c0 2.864-.095 2.911-3.246 3.293v.86c2.196.477 4.534 1.05 6.969 1.91zM126.716 57.534V42.929c0-2.625.238-2.864 4.248-3.198v-1.098h-11.121v1.098c2.91.334 3.15.573 3.15 3.198v14.605h-3.39l-.19.477 1.337 1.337h2.243v.716c0 1.957.19 3.436.477 4.295.334.955 1.003 3.437 3.58 5.633 1.86 1.527 3.58 2.29 5.68 2.529 1.289-.095 2.72-.811 3.58-1.766.477-.525.382-.907.19-1.336-.143-.382-.572-.86-.907-1.194-.572-.477-.954-.43-1.384-.047-1.05 1.002-2.481 1.957-4.056 1.957-.716 0-1.48-.43-2.101-1.29-.668-.858-1.384-3.436-1.336-7.493v-2.004h5.918c.239-.525.048-1.527-.477-1.814z" fill="#231f20" fill-opacity="1" fill-rule="nonzero" stroke="none"/><path d="M149.769 55.29c0 1.767-.477 2.149-1.48 2.244l-2.291.287v1.002c2.196.095 5.68.572 7.494.859V42.977c0-1.91.382-2.053 1.384-2.101l2.1-.095v-1.05c-2.004-.238-5.49-1.193-6.92-1.67l-.287.286v3.389c-1.098-.86-2.386-1.814-3.627-2.53-1.385-.811-2.578-1.145-3.771-1.145-3.39 0-5.966 1.766-5.966 6.539v10.69c0 1.767-.43 2.149-1.528 2.292l-1.48.239v1.002c1.433.095 4.917.572 6.73.859V46.27c0-4.44 2.053-5.49 4.2-5.49 1.67 0 3.485.765 5.442 2.435zM161.605 66.793c0 2.816-.096 2.864-3.389 3.103v.954c2.291.43 5.393 1.193 7.112 1.671V42.929c0-2.673.238-2.912 3.484-3.199v-1.097h-10.691v1.097c3.245.287 3.484.526 3.484 3.199zM189.814 54.766V44.36c0-3.198.62-4.296 4.104-4.248 4.009 0 7.399 2.005 7.399 7.064 0 5.202-3.818 7.589-8.735 7.589zm0 1.384h3.007c4.582 0 6.873 2.148 6.873 6.06 0 2.866-1.193 6.063-6.825 6.063-1.576 0-2.243-.143-2.625-.286-.287-.096-.43-.286-.43-1.241zm4.678 13.508c3.435 0 5.392-.574 6.968-1.671 1.621-1.146 2.48-2.864 2.48-5.25 0-4.2-3.96-6.253-6.252-6.825v-.096c4.344-.621 8.258-3.198 8.258-8.02 0-3.387-1.672-5.774-4.44-7.35-2.433-1.335-5.488-1.813-9.116-1.813h-10.977v1.098c4.008.286 4.39.62 4.39 5.823v17.183c-.048 5.202-.334 5.536-4.104 5.822v1.099zM221.597 52.57c.668 0 .86.239.86 1.527 0 1.91-1.528 4.2-4.01 4.2-2.29 0-4.774-2.338-5.155-5.87zm4.773-9.833c-2.625-3.722-5.919-4.677-7.207-4.677-6.062 0-9.689 4.534-9.689 10.07 0 6.397 4.486 11.79 10.213 11.79 3.724 0 6.826-3.436 6.826-6.634 0-1.48-.143-1.575-1.002-1.766-.668-.143-6.588-.62-12.506-.811-.142-7.112 4.344-9.594 7.781-9.594 1.575 0 3.006.573 4.916 2.29zM233.859 53.143c0-3.723 1.814-6.348 4.535-6.348 1.908 0 3.912 1.67 3.912 5.44 0 3.533-1.717 6.349-4.486 6.349-1.957 0-3.961-1.91-3.961-5.441m12.027-18.806c0 2.1-1.002 3.294-2.433 3.867-1.385.525-2.96.62-4.87.62-1.716 0-3.005-.382-3.96-1.145-.955-.812-1.766-1.91-1.766-3.437 0-2.912 2.625-4.916 6.348-4.916 4.916 0 6.68 2.816 6.68 5.01M244.55 57.01c1.002-1.097 1.528-2.625 1.528-4.01 0-5.06-4.44-7.541-8.21-7.541-.286 0-.667 0-1.384.048-1.051-.382-2.338-1.336-2.338-2.052 0-.955.859-1.623 3.055-1.623 1.43 0 3.435.048 5.25.048 2.242 0 6.443-.67 6.443-5.346 0-4.964-5.488-9.451-11.36-9.451-5.823 0-8.353 3.294-8.353 5.872 0 1.145.383 1.957.955 2.577.62.716 2.912 2.434 4.295 3.34-1.861.43-3.244 1.48-3.865 2.53-.383.669-.478 1.385-.43 1.862 1.623.573 3.676 1.814 4.678 2.673-2.863.907-4.87 3.246-4.87 6.205 0 5.25 4.774 7.779 8.306 7.779 1.718 0 3.199-.43 4.392-1.145 2.196.096 4.295.334 6.395.62l.238-.381c-.381-.668-1.383-1.91-2.051-2.196zM258.82 68.56c0-1.433-1.098-2.578-2.482-2.578-1.336 0-2.481 1.145-2.481 2.577 0 1.48 1.145 2.625 2.48 2.625 1.385 0 2.483-1.145 2.483-2.625m-.621-25.63c0-2.673.24-2.912 3.437-3.199v-1.097h-10.548v1.097c3.15.287 3.388.526 3.388 3.2v11.024c0 2.864-.095 2.911-3.244 3.293v.86c2.195.477 4.533 1.05 6.967 1.91zM270.609 56.436c.906.668 1.957 1.336 3.197 2.1 1.432.859 2.625 1.384 4.106 1.384 3.914 0 6.06-2.577 6.06-6.348V42.929c0-2.673.24-2.912 3.008-3.199v-1.097h-10.12v1.097c3.15.287 3.39.526 3.39 3.199v9.164c0 2.768-.907 5.154-4.438 5.154-1.861 0-3.771-1.002-5.203-2.243V42.929c0-2.673.238-2.912 3.055-3.199v-1.097h-10.311v1.097c3.295.287 3.533.526 3.533 3.199v11.025c0 2.864-.095 2.911-3.246 3.293v.859c2.196.478 4.535 1.05 6.969 1.91zM296.382 56.436c.906.668 1.957 1.336 3.197 2.1 1.432.859 2.625 1.384 4.106 1.384 3.914 0 6.06-2.577 6.06-6.348V42.929c0-2.673.241-2.912 3.008-3.199v-1.097h-10.119v1.097c3.15.287 3.39.526 3.39 3.199v9.164c0 2.768-.908 5.154-4.439 5.154-1.86 0-3.77-1.002-5.203-2.243V42.929c0-2.673.238-2.912 3.055-3.199v-1.097h-10.31v1.097c3.294.287 3.532.526 3.532 3.199v11.025c0 2.864-.095 2.911-3.246 3.293v.859c2.196.478 4.535 1.05 6.97 1.91zM322.777 68.56c0-1.433-1.098-2.578-2.482-2.578-1.336 0-2.483 1.145-2.483 2.577 0 1.48 1.147 2.625 2.483 2.625 1.384 0 2.482-1.145 2.482-2.625m-.621-25.63c0-2.673.238-2.912 3.435-3.199v-1.097h-10.546v1.097c3.15.287 3.388.526 3.388 3.2v11.024c0 2.864-.095 2.911-3.246 3.293v.86c2.195.477 4.535 1.05 6.969 1.91zM334.564 56.436c.908.668 1.957 1.336 3.199 2.1 1.432.859 2.625 1.384 4.104 1.384 3.914 0 6.062-2.577 6.062-6.348V42.929c0-2.673.239-2.912 3.008-3.199v-1.097h-10.119v1.097c3.15.287 3.389.526 3.389 3.199v9.164c0 2.768-.907 5.154-4.44 5.154-1.861 0-3.769-1.002-5.203-2.243V42.929c0-2.673.24-2.912 3.055-3.199v-1.097H327.31v1.097c3.293.287 3.531.526 3.531 3.199v11.025c0 2.864-.095 2.911-3.244 3.293v.859c2.196.478 4.533 1.05 6.967 1.91zM358 53.143c0-3.723 1.813-6.348 4.533-6.348 1.91 0 3.914 1.67 3.914 5.44 0 3.533-1.718 6.349-4.486 6.349-1.957 0-3.961-1.91-3.961-5.441m12.027-18.806c0 2.1-1.002 3.294-2.435 3.867-1.383.525-2.96.62-4.867.62-1.72 0-3.009-.382-3.962-1.145-.955-.812-1.768-1.91-1.768-3.437 0-2.912 2.625-4.916 6.35-4.916 4.916 0 6.681 2.816 6.681 5.01M368.69 57.01c1.002-1.097 1.528-2.625 1.528-4.01 0-5.06-4.44-7.541-8.21-7.541-.285 0-.668 0-1.383.048-1.051-.382-2.34-1.336-2.34-2.052 0-.955.86-1.623 3.055-1.623 1.43 0 3.437.048 5.25.048 2.244 0 6.443-.67 6.443-5.346 0-4.964-5.488-9.451-11.36-9.451-5.821 0-8.351 3.294-8.351 5.872 0 1.145.38 1.957.953 2.577.62.716 2.912 2.434 4.297 3.34-1.861.43-3.246 1.48-3.867 2.53-.381.669-.476 1.385-.43 1.862 1.623.573 3.676 1.814 4.678 2.673-2.863.907-4.867 3.246-4.867 6.205 0 5.25 4.77 7.779 8.305 7.779 1.718 0 3.197-.43 4.39-1.145 2.196.096 4.295.334 6.397.62l.238-.381c-.383-.668-1.385-1.91-2.053-2.196zM377.13 45.315c.764-2.768 2.912-5.823 5.73-5.823 1.717 0 3.387 1.193 3.387 3.532 0 1.957-1.097 3.34-3.722 4.487-3.104 1.384-5.729 3.007-5.729 6.157 0 3.436 2.961 6.252 7.113 6.252 1.717 0 3.055-.382 4.008-.811.48-1.098.955-3.771 1.051-4.582l-1.147-.287c-1.43 3.15-2.959 4.248-4.77 4.248-2.15 0-3.15-1.67-3.15-3.245 0-1.957 2.051-3.294 4.151-4.153 3.484-1.432 5.775-3.293 5.775-6.491 0-4.391-4.056-6.54-7.685-6.54-2.434 0-4.629 1.004-5.535 1.767-.288.716-.575 3.34-.575 5.202z" fill="#231f20" fill-opacity="1" fill-rule="nonzero" stroke="none"/><path d="M5.813 27.631H.388v5.426h5.425zM56.806 27.631H51.38v5.426h5.426zM107.799 27.631h-5.426v5.426h5.426zM158.792 27.631h-5.426v5.426h5.426zM209.784 27.631h-5.424v5.426h5.424zM283.506 27.631h-5.426v5.426h5.426zM334.5 27.631h-5.426v5.426h5.426z" fill="#d4db90" fill-opacity="1" fill-rule="nonzero" stroke="none"/><path d="M18.561 27.631h-5.425v5.426h5.425zM69.553 27.631H64.13v5.426h5.423zM120.546 27.631h-5.424v5.426h5.424zM171.54 27.631h-5.424v5.426h5.424zM222.532 27.631h-5.424v5.426h5.424zM296.253 27.631h-5.424v5.426h5.424zM347.247 27.631h-5.424v5.426h5.424z" fill="#feb" fill-opacity="1" fill-rule="nonzero" stroke="none"/><path d="M31.31 27.631h-5.426v5.426h5.426zM82.302 27.631h-5.426v5.426h5.426zM133.295 27.631h-5.426v5.426h5.426zM184.29 27.631h-5.427v5.426h5.427zM258.009 27.631h-5.426v5.426h5.426zM309.002 27.631h-5.426v5.426h5.426zM379.141 27.245h-5.426v5.427h5.426z" fill="#fac5ce" fill-opacity="1" fill-rule="nonzero" stroke="none"/><path d="M44.059 27.631h-5.428v5.426h5.428zM95.052 27.631h-5.428v5.426h5.428zM146.044 27.631h-5.427v5.426h5.427zM197.038 27.631h-5.426v5.426h5.426zM270.757 27.631h-5.427v5.426h5.427zM321.75 27.631h-5.426v5.426h5.426zM390.738 27.245h-5.427v5.427h5.427z" fill="#b8d1ed" fill-opacity="1" fill-rule="nonzero" stroke="none"/></g></svg>