<svg version="1.1" xmlns="http://www.w3.org/2000/svg" xmlns:xlink="http://www.w3.org/1999/xlink">
	<defs>
        <symbol id="bb-logo" viewBox="0 0 172 32">
            <title>bb-logo</title>
            <path fill="#231f20" d="M38.714 26.915c-0.263-0.116-0.58-0.201-0.843-0.201-0.95 0-1.484 0.688-1.484 1.646 0 0.897 0.541 1.647 1.43 1.647 0.309 0 0.595-0.069 0.889-0.177l0.046 0.456c-0.332 0.116-0.642 0.139-1.013 0.139-1.267 0-1.885-0.966-1.885-2.064 0-1.213 0.781-2.064 1.948-2.064 0.003 0 0.006 0 0.009 0 0.337 0 0.66 0.057 0.962 0.161l-0.021-0.006zM42.524 28.082c0-0.688-0.278-1.369-1.005-1.369-0.719 0-1.16 0.719-1.16 1.368zM42.763 30.207c-0.34 0.139-0.781 0.217-1.144 0.217-1.306 0-1.793-0.881-1.793-2.064 0-1.206 0.665-2.064 1.662-2.064 1.113 0 1.569 0.897 1.569 1.956v0.247h-2.698c0 0.835 0.448 1.507 1.299 1.507 0.356 0 0.874-0.146 1.105-0.293zM44.524 24.534h0.487v5.797h-0.487zM49.184 28.082c0-0.688-0.278-1.369-1.005-1.369-0.719 0-1.16 0.719-1.16 1.368zM49.424 30.207c-0.34 0.139-0.781 0.217-1.144 0.217-1.307 0-1.793-0.881-1.793-2.064 0-1.206 0.665-2.064 1.662-2.064 1.113 0 1.569 0.897 1.569 1.956v0.247h-2.698c0 0.835 0.448 1.507 1.299 1.507 0.356 0 0.874-0.146 1.105-0.293zM52.792 26.713c-0.889 0-1.167 0.928-1.167 1.646 0 0.719 0.301 1.647 1.167 1.647 0.928 0 1.167-0.881 1.167-1.646s-0.24-1.646-1.167-1.646zM51.138 24.534h0.487v2.52h0.015c0.070-0.193 0.456-0.757 1.229-0.757 1.16 0 1.624 0.866 1.624 2.064 0 1.167-0.542 2.064-1.624 2.064-0.564 0-0.966-0.216-1.229-0.719h-0.015v0.627h-0.487zM56.022 27.27c0-0.432 0-0.595-0.031-0.881h0.488v0.758h0.015c0.178-0.44 0.511-0.851 1.013-0.851 0.116 0 0.255 0.023 0.34 0.046v0.511c-0.102-0.030-0.22-0.047-0.341-0.047-0.005 0-0.010 0-0.015 0h0.001c-0.773 0-0.981 0.866-0.981 1.577v1.948h-0.487zM61.354 28.344h-0.139c-0.843 0-1.848 0.085-1.848 0.95 0 0.518 0.371 0.711 0.819 0.711 1.144 0 1.167-0.997 1.167-1.422zM61.4 29.697h-0.015c-0.216 0.472-0.765 0.727-1.252 0.727-1.121 0-1.298-0.757-1.298-1.113 0-1.322 1.407-1.383 2.427-1.383h0.093v-0.201c0-0.673-0.24-1.013-0.897-1.013-0.409 0-0.796 0.093-1.16 0.324v-0.471c0.302-0.146 0.812-0.271 1.16-0.271 0.974 0 1.384 0.441 1.384 1.469v1.739c0 0.317 0 0.557 0.038 0.827h-0.479zM65.241 26.806h-0.897v2.55c0 0.356 0.132 0.649 0.526 0.649 0.186 0 0.309-0.038 0.448-0.092l0.031 0.402c-0.177 0.067-0.381 0.107-0.594 0.109h-0.001c-0.865 0-0.897-0.595-0.897-1.314v-2.304h-0.773v-0.417h0.773v-0.951l0.487-0.17v1.121h0.897zM66.654 26.389h0.487v3.942h-0.487zM67.141 25.337h-0.487v-0.649h0.487zM68.911 27.316c0-0.301 0-0.61-0.031-0.927h0.472v0.703h0.015c0.162-0.355 0.456-0.796 1.275-0.796 0.974 0 1.345 0.65 1.345 1.515v2.52h-0.487v-2.396c0-0.741-0.263-1.221-0.935-1.221-0.889 0-1.167 0.781-1.167 1.438v2.179h-0.487zM75.185 29.913c0.882 0 1.198-0.835 1.198-1.553 0-0.951-0.278-1.647-1.167-1.647-0.927 0-1.167 0.881-1.167 1.647 0 0.773 0.309 1.554 1.136 1.554zM76.87 30.006c0 1.097-0.495 1.994-1.847 1.994-0.518 0-0.989-0.147-1.19-0.209l0.038-0.487c0.338 0.172 0.736 0.274 1.158 0.278h0.001c1.252 0 1.36-0.912 1.36-2.025h-0.015c-0.263 0.572-0.695 0.773-1.198 0.773-1.26 0-1.662-1.097-1.662-1.971 0-1.198 0.463-2.064 1.623-2.064 0.525 0 0.865 0.070 1.229 0.541h0.015v-0.448h0.487zM82.882 26.713c-0.889 0-1.168 0.928-1.168 1.646 0 0.719 0.302 1.647 1.168 1.647 0.928 0 1.168-0.881 1.168-1.646s-0.24-1.646-1.168-1.646zM81.227 24.534h0.487v2.52h0.016c0.070-0.193 0.456-0.757 1.229-0.757 1.16 0 1.623 0.866 1.623 2.064 0 1.167-0.541 2.064-1.623 2.064-0.564 0-0.966-0.216-1.229-0.719h-0.016v0.627h-0.487zM88.33 28.344h-0.139c-0.843 0-1.848 0.085-1.848 0.95 0 0.518 0.371 0.711 0.819 0.711 1.144 0 1.167-0.997 1.167-1.422zM88.376 29.697h-0.015c-0.216 0.472-0.765 0.727-1.252 0.727-1.121 0-1.299-0.757-1.299-1.113 0-1.322 1.407-1.383 2.427-1.383h0.093v-0.201c0-0.673-0.239-1.013-0.896-1.013-0.409 0-0.796 0.093-1.159 0.324v-0.471c0.301-0.146 0.811-0.271 1.159-0.271 0.974 0 1.384 0.441 1.384 1.469v1.739c0 0.317 0 0.557 0.038 0.827h-0.479zM92.124 26.713c-0.89 0-1.167 0.928-1.167 1.646 0 0.719 0.301 1.647 1.167 1.647 0.927 0 1.167-0.881 1.167-1.646s-0.24-1.646-1.167-1.646zM90.469 24.534h0.488v2.52h0.015c0.070-0.193 0.457-0.757 1.229-0.757 1.16 0 1.624 0.866 1.624 2.064 0 1.167-0.541 2.064-1.624 2.064-0.564 0-0.966-0.216-1.229-0.719h-0.015v0.627h-0.488zM96.527 30.918c-0.185 0.541-0.463 1.082-1.013 1.082-0.177 0-0.363-0.023-0.525-0.062l0.046-0.417c0.093 0.031 0.185 0.062 0.364 0.062 0.417 0 0.556-0.348 0.711-0.858l0.1-0.348-1.399-3.989h0.534l1.104 3.293-0.007-0.007h0.015l1.137-3.286h0.51zM104.231 28.344h-0.139c-0.843 0-1.848 0.085-1.848 0.95 0 0.518 0.372 0.711 0.819 0.711 1.144 0 1.167-0.997 1.167-1.422zM104.277 29.697h-0.015c-0.216 0.472-0.765 0.727-1.252 0.727-1.12 0-1.297-0.757-1.297-1.113 0-1.322 1.406-1.383 2.427-1.383h0.092v-0.201c0-0.673-0.24-1.013-0.896-1.013-0.41 0-0.797 0.093-1.16 0.324v-0.471c0.3-0.146 0.811-0.271 1.159-0.271 0.974 0 1.383 0.441 1.383 1.469v1.739c0 0.317 0 0.557 0.038 0.827h-0.479zM106.418 27.316c0-0.301 0-0.61-0.031-0.927h0.472v0.703h0.015c0.163-0.355 0.457-0.796 1.276-0.796 0.974 0 1.346 0.65 1.346 1.515v2.52h-0.488v-2.396c0-0.741-0.263-1.221-0.935-1.221-0.89 0-1.168 0.781-1.168 1.438v2.179h-0.487zM112.724 30.006c0.865 0 1.167-0.927 1.167-1.646s-0.302-1.646-1.167-1.646c-0.927 0-1.167 0.881-1.167 1.647s0.24 1.646 1.167 1.646zM114.377 30.331h-0.487v-0.627h-0.016c-0.263 0.503-0.664 0.719-1.229 0.719-1.081 0-1.623-0.897-1.623-2.063 0-1.198 0.464-2.064 1.623-2.064 0.773 0 1.159 0.564 1.229 0.758h0.016v-2.52h0.487zM121.347 26.915c-0.263-0.116-0.579-0.201-0.842-0.201-0.951 0-1.484 0.688-1.484 1.646 0 0.897 0.541 1.647 1.43 1.647 0.309 0 0.596-0.069 0.888-0.177l0.047 0.456c-0.332 0.116-0.641 0.139-1.013 0.139-1.268 0-1.885-0.966-1.885-2.064 0-1.213 0.781-2.064 1.948-2.064 0.003 0 0.006 0 0.009 0 0.337 0 0.66 0.057 0.962 0.161l-0.021-0.006zM122.752 24.534h0.488v2.52h0.015c0.208-0.433 0.65-0.758 1.229-0.758 1.059 0 1.345 0.704 1.345 1.678v2.358h-0.487v-2.35c0-0.68-0.132-1.268-0.935-1.268-0.866 0-1.167 0.819-1.167 1.507v2.111h-0.487zM127.59 26.389h0.487v3.942h-0.487zM128.077 25.337h-0.487v-0.649h0.487zM129.846 24.534h0.487v5.797h-0.487zM133.571 30.006c0.865 0 1.167-0.927 1.167-1.646s-0.302-1.646-1.167-1.646c-0.928 0-1.167 0.881-1.167 1.647s0.24 1.646 1.167 1.646zM135.225 30.331h-0.487v-0.627h-0.016c-0.263 0.503-0.664 0.719-1.229 0.719-1.082 0-1.623-0.897-1.623-2.063 0-1.198 0.464-2.064 1.623-2.064 0.773 0 1.159 0.564 1.229 0.758h0.016v-2.52h0.487zM3.707 7.834v4.592c0 1.411 0.274 1.896 1.811 1.874 1.769 0 3.264-0.885 3.264-3.117 0-2.295-1.685-3.349-3.854-3.349zM3.707 7.224h1.327c2.022 0 3.033-0.948 3.033-2.674 0-1.265-0.526-2.675-3.012-2.675-0.695 0-0.99 0.063-1.159 0.126-0.126 0.042-0.189 0.126-0.189 0.548zM5.77 1.263c1.517 0 2.38 0.253 3.076 0.737 0.716 0.506 1.095 1.264 1.095 2.317 0 1.853-1.748 2.759-2.759 3.012v0.042c1.917 0.274 3.643 1.411 3.643 3.539 0 1.495-0.737 2.548-1.959 3.243-1.074 0.589-2.422 0.8-4.022 0.8h-4.844v-0.485c1.769-0.126 1.937-0.274 1.937-2.569v-7.582c-0.021-2.295-0.147-2.443-1.811-2.569v-0.485zM17.732 8.803c0.295 0 0.379-0.105 0.379-0.674 0-0.843-0.674-1.853-1.769-1.853-1.010 0-2.106 1.032-2.274 2.59zM19.838 13.142c-1.159 1.642-2.612 2.064-3.181 2.064-2.674 0-4.276-2.001-4.276-4.443 0-2.823 1.98-5.202 4.508-5.202 1.642 0 3.012 1.516 3.012 2.927 0 0.653-0.063 0.695-0.442 0.779-0.295 0.063-2.907 0.274-5.518 0.358-0.063 3.138 1.916 4.233 3.433 4.233 0.695 0 1.327-0.253 2.169-1.010zM26.071 9.856c-0.463 0.19-1.727 0.759-2.127 0.969-0.737 0.4-1.096 0.821-1.096 1.58 0 1.116 0.759 1.643 1.39 1.643 0.484 0 1.263-0.379 1.832-0.822zM27.23 15.206c-0.716-0.127-1.032-0.843-1.158-1.369-0.884 0.569-2.022 1.369-2.464 1.369-1.537 0-2.527-1.264-2.527-2.422 0-0.969 0.506-1.685 1.6-2.127 1.032-0.422 2.759-1.033 3.391-1.475v-0.716c0-1.306-0.611-2.001-1.727-2.001-1.032 0-1.474 0.884-1.706 1.769-0.063 0.252-0.253 0.4-0.484 0.4-0.337 0-0.906-0.337-0.906-0.716 0-0.274 0.253-0.569 0.716-0.905 0.505-0.379 1.748-1.179 3.243-1.453 0.59 0 1.243 0.19 1.664 0.505 0.695 0.548 0.8 1.285 0.8 2.043v4.739c0 0.779 0.274 1.137 0.59 1.137 0.169 0 0.526-0.084 0.906-0.274l0.189 0.463zM36.981 7.603c0-0.78-0.21-0.948-0.653-0.99l-1.011-0.127v-0.442c0.969-0.042 2.506-0.252 3.307-0.379v7.371c0 0.843 0.169 0.906 0.611 0.927l0.927 0.042v0.463c-0.885 0.105-2.422 0.526-3.053 0.737l-0.127-0.126v-1.495c-0.484 0.379-1.053 0.8-1.6 1.116-0.611 0.358-1.138 0.505-1.664 0.505-1.496 0-2.633-0.779-2.633-2.885v-4.717c0-0.78-0.189-0.948-0.674-1.011l-0.653-0.105v-0.442c0.632-0.042 2.169-0.252 2.97-0.379v5.918c0 1.959 0.905 2.422 1.853 2.422 0.737 0 1.537-0.338 2.401-1.074zM43.785 12.173c0 1.643 0.779 1.937 1.348 1.937 0.379 0 0.842-0.168 1.243-0.4l0.21 0.463-1.727 0.864c-0.211 0.105-0.485 0.169-0.632 0.169-1.348 0-2.085-0.864-2.085-2.548v-6.045h-1.538l-0.084-0.21 0.611-0.59h1.010v-1.326l1.37-1.39h0.274v2.716h2.443c0.168 0.232 0.105 0.569-0.147 0.8h-2.296zM50.712 1.748c0 0.632-0.484 1.138-1.095 1.138-0.59 0-1.096-0.505-1.096-1.137 0-0.653 0.506-1.158 1.096-1.158 0.61 0 1.094 0.505 1.094 1.158zM50.438 13.057c0 1.179 0.105 1.285 1.517 1.412v0.484h-4.654v-0.484c1.39-0.127 1.495-0.232 1.495-1.412v-4.864c0-1.264-0.042-1.284-1.432-1.453v-0.379c0.969-0.21 2.001-0.463 3.075-0.843zM55.914 6.613v6.444c0 1.158 0.105 1.264 1.874 1.411v0.485h-4.907v-0.485c1.284-0.147 1.39-0.253 1.39-1.411v-6.444h-1.496l-0.084-0.21 0.59-0.59h0.99v-0.316c0-0.864 0.084-1.516 0.21-1.895 0.147-0.421 0.443-1.517 1.58-2.486 0.821-0.674 1.58-1.010 2.506-1.116 0.569 0.042 1.2 0.358 1.58 0.779 0.21 0.232 0.169 0.4 0.084 0.59-0.063 0.169-0.252 0.379-0.4 0.527-0.252 0.21-0.421 0.19-0.611 0.021-0.463-0.442-1.095-0.864-1.79-0.864-0.316 0-0.653 0.19-0.927 0.569-0.295 0.379-0.611 1.516-0.59 3.306v0.884h2.611c0.105 0.232 0.021 0.674-0.21 0.8z"></path>
            <path fill="#231f20" d="M66.086 7.603c0-0.78-0.21-0.948-0.653-0.99l-1.011-0.127v-0.442c0.969-0.042 2.506-0.252 3.307-0.379v7.371c0 0.843 0.169 0.906 0.611 0.927l0.927 0.042v0.463c-0.884 0.105-2.422 0.526-3.053 0.737l-0.127-0.126v-1.495c-0.484 0.379-1.053 0.8-1.6 1.116-0.611 0.358-1.138 0.505-1.664 0.505-1.496 0-2.633-0.779-2.633-2.885v-4.717c0-0.78-0.19-0.948-0.674-1.011l-0.653-0.105v-0.442c0.632-0.042 2.17-0.252 2.97-0.379v5.918c0 1.959 0.906 2.422 1.853 2.422 0.737 0 1.538-0.338 2.401-1.074zM71.309 2.527c0-1.243-0.042-1.264-1.495-1.369v-0.421c1.011-0.19 2.38-0.526 3.138-0.737v13.058c0 1.179 0.105 1.285 1.537 1.412v0.484h-4.717v-0.484c1.432-0.127 1.537-0.232 1.537-1.412zM83.756 7.834v4.592c0 1.411 0.274 1.896 1.811 1.874 1.769 0 3.265-0.885 3.265-3.117 0-2.295-1.685-3.349-3.854-3.349zM83.756 7.224h1.327c2.022 0 3.033-0.948 3.033-2.674 0-1.265-0.526-2.675-3.012-2.675-0.695 0-0.99 0.063-1.158 0.126-0.127 0.042-0.19 0.126-0.19 0.548zM85.82 1.263c1.516 0 2.379 0.253 3.075 0.737 0.715 0.506 1.094 1.264 1.094 2.317 0 1.853-1.747 2.759-2.759 3.012v0.042c1.917 0.274 3.644 1.411 3.644 3.539 0 1.495-0.738 2.548-1.959 3.243-1.074 0.589-2.422 0.8-4.022 0.8h-4.844v-0.485c1.769-0.126 1.937-0.274 1.937-2.569v-7.582c-0.021-2.295-0.147-2.443-1.811-2.569v-0.485zM97.78 8.803c0.295 0 0.379-0.105 0.379-0.674 0-0.843-0.674-1.853-1.769-1.853-1.010 0-2.107 1.032-2.275 2.59zM99.887 13.142c-1.158 1.642-2.612 2.064-3.18 2.064-2.675 0-4.275-2.001-4.275-4.443 0-2.823 1.979-5.202 4.507-5.202 1.643 0 3.012 1.516 3.012 2.927 0 0.653-0.063 0.695-0.442 0.779-0.295 0.063-2.907 0.274-5.518 0.358-0.063 3.138 1.917 4.233 3.433 4.233 0.695 0 1.326-0.253 2.169-1.010zM103.191 8.55c0 1.643 0.8 2.801 2.001 2.801 0.842 0 1.726-0.737 1.726-2.4 0-1.559-0.758-2.802-1.979-2.802-0.864 0-1.748 0.843-1.748 2.401zM108.498 16.849c0-0.927-0.442-1.454-1.074-1.706-0.611-0.232-1.306-0.274-2.149-0.274-0.757 0-1.326 0.169-1.747 0.505-0.421 0.358-0.779 0.843-0.779 1.517 0 1.285 1.158 2.169 2.801 2.169 2.169 0 2.948-1.243 2.948-2.211zM107.909 6.844c0.442 0.484 0.674 1.158 0.674 1.769 0 2.233-1.959 3.328-3.623 3.328-0.126 0-0.294 0-0.611-0.021-0.464 0.169-1.032 0.589-1.032 0.905 0 0.421 0.379 0.716 1.348 0.716 0.631 0 1.516-0.021 2.317-0.021 0.989 0 2.843 0.296 2.843 2.359 0 2.19-2.422 4.17-5.013 4.17-2.569 0-3.686-1.453-3.686-2.591 0-0.505 0.169-0.864 0.421-1.137 0.274-0.316 1.285-1.074 1.895-1.474-0.821-0.19-1.431-0.653-1.705-1.116-0.169-0.295-0.211-0.611-0.19-0.822 0.716-0.253 1.622-0.8 2.064-1.179-1.263-0.4-2.149-1.432-2.149-2.738 0-2.317 2.107-3.433 3.665-3.433 0.758 0 1.412 0.19 1.938 0.505 0.969-0.042 1.895-0.147 2.822-0.274l0.105 0.168c-0.168 0.295-0.61 0.843-0.905 0.969zM114.205 1.748c0 0.632-0.484 1.138-1.095 1.138-0.59 0-1.095-0.505-1.095-1.137 0-0.653 0.505-1.158 1.094-1.158 0.611 0 1.096 0.505 1.096 1.158zM113.931 13.057c0 1.179 0.106 1.285 1.517 1.412v0.484h-4.654v-0.484c1.39-0.127 1.495-0.232 1.495-1.412v-4.864c0-1.264-0.042-1.284-1.431-1.453v-0.379c0.969-0.21 2-0.463 3.074-0.843zM119.407 7.097c0.4-0.295 0.864-0.59 1.411-0.927 0.632-0.379 1.158-0.611 1.812-0.611 1.727 0 2.674 1.137 2.674 2.801v4.696c0 1.179 0.106 1.285 1.327 1.412v0.484h-4.466v-0.484c1.39-0.127 1.496-0.232 1.496-1.412v-4.044c0-1.221-0.4-2.274-1.958-2.274-0.821 0-1.664 0.442-2.296 0.99v5.328c0 1.179 0.105 1.285 1.348 1.412v0.484h-4.55v-0.484c1.454-0.127 1.559-0.232 1.559-1.412v-4.865c0-1.264-0.042-1.284-1.432-1.453v-0.379c0.969-0.211 2.001-0.463 3.075-0.843zM130.78 7.097c0.4-0.295 0.864-0.59 1.411-0.927 0.632-0.379 1.158-0.611 1.812-0.611 1.727 0 2.674 1.137 2.674 2.801v4.696c0 1.179 0.106 1.285 1.327 1.412v0.484h-4.465v-0.484c1.39-0.127 1.496-0.232 1.496-1.412v-4.044c0-1.221-0.401-2.274-1.959-2.274-0.821 0-1.664 0.442-2.296 0.99v5.328c0 1.179 0.105 1.285 1.348 1.412v0.484h-4.549v-0.484c1.454-0.127 1.558-0.232 1.558-1.412v-4.865c0-1.264-0.042-1.284-1.432-1.453v-0.379c0.969-0.211 2.001-0.463 3.076-0.843zM142.426 1.748c0 0.632-0.484 1.138-1.095 1.138-0.589 0-1.096-0.505-1.096-1.137 0-0.653 0.506-1.158 1.096-1.158 0.611 0 1.095 0.505 1.095 1.158zM142.152 13.057c0 1.179 0.105 1.285 1.516 1.412v0.484h-4.653v-0.484c1.39-0.127 1.495-0.232 1.495-1.412v-4.864c0-1.264-0.042-1.284-1.432-1.453v-0.379c0.969-0.21 2.001-0.463 3.075-0.843zM147.628 7.097c0.401-0.295 0.864-0.59 1.412-0.927 0.632-0.379 1.158-0.611 1.811-0.611 1.727 0 2.675 1.137 2.675 2.801v4.696c0 1.179 0.105 1.285 1.327 1.412v0.484h-4.465v-0.484c1.39-0.127 1.495-0.232 1.495-1.412v-4.044c0-1.221-0.4-2.274-1.959-2.274-0.821 0-1.663 0.442-2.296 0.99v5.328c0 1.179 0.106 1.285 1.348 1.412v0.484h-4.549v-0.484c1.453-0.127 1.558-0.232 1.558-1.412v-4.865c0-1.264-0.042-1.284-1.431-1.453v-0.379c0.969-0.211 2-0.463 3.074-0.843zM157.969 8.55c0 1.643 0.8 2.801 2 2.801 0.843 0 1.727-0.737 1.727-2.4 0-1.559-0.758-2.802-1.979-2.802-0.864 0-1.748 0.843-1.748 2.401zM163.276 16.849c0-0.927-0.442-1.454-1.074-1.706-0.61-0.232-1.306-0.274-2.148-0.274-0.759 0-1.328 0.169-1.748 0.505-0.421 0.358-0.78 0.843-0.78 1.517 0 1.285 1.158 2.169 2.802 2.169 2.169 0 2.948-1.243 2.948-2.211zM162.686 6.844c0.442 0.484 0.674 1.158 0.674 1.769 0 2.233-1.959 3.328-3.623 3.328-0.126 0-0.295 0-0.61-0.021-0.464 0.169-1.033 0.589-1.033 0.905 0 0.421 0.379 0.716 1.348 0.716 0.631 0 1.517-0.021 2.317-0.021 0.99 0 2.843 0.296 2.843 2.359 0 2.19-2.422 4.17-5.013 4.17-2.569 0-3.685-1.453-3.685-2.591 0-0.505 0.168-0.864 0.421-1.137 0.274-0.316 1.285-1.074 1.896-1.474-0.821-0.19-1.432-0.653-1.706-1.116-0.168-0.295-0.21-0.611-0.19-0.822 0.716-0.253 1.622-0.8 2.064-1.179-1.263-0.4-2.148-1.432-2.148-2.738 0-2.317 2.105-3.433 3.665-3.433 0.758 0 1.411 0.19 1.937 0.505 0.969-0.042 1.895-0.147 2.823-0.274l0.105 0.168c-0.169 0.295-0.611 0.843-0.906 0.969zM166.41 12.005c0.337 1.221 1.285 2.569 2.528 2.569 0.758 0 1.495-0.526 1.495-1.559 0-0.864-0.484-1.474-1.642-1.98-1.37-0.611-2.528-1.327-2.528-2.717 0-1.516 1.307-2.759 3.139-2.759 0.758 0 1.348 0.169 1.769 0.358 0.212 0.484 0.421 1.664 0.464 2.022l-0.506 0.127c-0.631-1.39-1.306-1.874-2.105-1.874-0.949 0-1.39 0.737-1.39 1.432 0 0.864 0.905 1.454 1.832 1.833 1.537 0.632 2.548 1.453 2.548 2.864 0 1.938-1.79 2.886-3.391 2.886-1.074 0-2.043-0.443-2.442-0.78-0.127-0.316-0.254-1.474-0.254-2.295z"></path>
            <path fill="#d4db90" d="M2.565 19.808h-2.394v-2.394h2.394zM25.066 19.808h-2.394v-2.394h2.394zM47.567 19.808h-2.394v-2.394h2.394zM70.068 19.808h-2.394v-2.394h2.394zM92.568 19.808h-2.393v-2.394h2.393zM125.098 19.808h-2.394v-2.394h2.394zM147.599 19.808h-2.394v-2.394h2.394z"></path>
            <path fill="#feb" d="M8.19 19.808h-2.394v-2.394h2.394zM30.691 19.808h-2.393v-2.394h2.393zM53.191 19.808h-2.393v-2.394h2.393zM75.693 19.808h-2.393v-2.394h2.393zM98.193 19.808h-2.393v-2.394h2.393zM130.723 19.808h-2.393v-2.394h2.393zM153.224 19.808h-2.393v-2.394h2.393z"></path>
            <path fill="#fac5ce" d="M13.816 19.808h-2.394v-2.394h2.394zM36.316 19.808h-2.394v-2.394h2.394zM58.817 19.808h-2.394v-2.394h2.394zM81.319 19.808h-2.395v-2.394h2.395zM113.847 19.808h-2.394v-2.394h2.394zM136.348 19.808h-2.394v-2.394h2.394zM167.297 19.978h-2.394v-2.395h2.394z"></path>
            <path fill="#b8d1ed" d="M19.441 19.808h-2.395v-2.394h2.395zM41.942 19.808h-2.395v-2.394h2.395zM64.442 19.808h-2.395v-2.394h2.395zM86.944 19.808h-2.394v-2.394h2.394zM119.472 19.808h-2.395v-2.394h2.395zM141.973 19.808h-2.394v-2.394h2.394zM172.415 19.978h-2.395v-2.395h2.395z"></path>
        </symbol>
        <symbol id="icon-shopping-cart" viewBox="0 0 24 24">
            <title>shopping cart</title>
            <path d="M20.756 5.345c-0.191-0.219-0.466-0.345-0.756-0.345h-13.819l-0.195-1.164c-0.080-0.482-0.497-0.836-0.986-0.836h-2.25c-0.553 0-1 0.447-1 1s0.447 1 1 1h1.403l1.86 11.164c0.008 0.045 0.031 0.082 0.045 0.124 0.016 0.053 0.029 0.103 0.054 0.151 0.032 0.066 0.075 0.122 0.12 0.179 0.031 0.039 0.059 0.078 0.095 0.112 0.058 0.054 0.125 0.092 0.193 0.13 0.038 0.021 0.071 0.049 0.112 0.065 0.116 0.047 0.238 0.075 0.367 0.075 0.001 0 11.001 0 11.001 0 0.553 0 1-0.447 1-1s-0.447-1-1-1h-10.153l-0.166-1h11.319c0.498 0 0.92-0.366 0.99-0.858l1-7c0.041-0.288-0.045-0.579-0.234-0.797zM18.847 7l-0.285 2h-3.562v-2h3.847zM14 7v2h-3v-2h3zM14 10v2h-3v-2h3zM10 7v2h-3c-0.053 0-0.101 0.015-0.148 0.030l-0.338-2.030h3.486zM7.014 10h2.986v2h-2.653l-0.333-2zM15 12v-2h3.418l-0.285 2h-3.133z"></path>
            <path d="M10 19.5c0 0.828-0.672 1.5-1.5 1.5s-1.5-0.672-1.5-1.5c0-0.828 0.672-1.5 1.5-1.5s1.5 0.672 1.5 1.5z"></path>
            <path d="M19 19.5c0 0.828-0.672 1.5-1.5 1.5s-1.5-0.672-1.5-1.5c0-0.828 0.672-1.5 1.5-1.5s1.5 0.672 1.5 1.5z"></path>
        </symbol>
        <symbol id="icon-facebook" viewBox="0 0 32 32">
            <title>facebook</title>
            <path d="M29 0h-26c-1.65 0-3 1.35-3 3v26c0 1.65 1.35 3 3 3h13v-14h-4v-4h4v-2c0-3.306 2.694-6 6-6h4v4h-4c-1.1 0-2 0.9-2 2v2h6l-1 4h-5v14h9c1.65 0 3-1.35 3-3v-26c0-1.65-1.35-3-3-3z"></path>
        </symbol>
        <symbol id="icon-twitter" viewBox="0 0 26 28">
            <title>twitter</title>
            <path d="M25.312 6.375c-0.688 1-1.547 1.891-2.531 2.609 0.016 0.219 0.016 0.438 0.016 0.656 0 6.672-5.078 14.359-14.359 14.359-2.859 0-5.516-0.828-7.75-2.266 0.406 0.047 0.797 0.063 1.219 0.063 2.359 0 4.531-0.797 6.266-2.156-2.219-0.047-4.078-1.5-4.719-3.5 0.313 0.047 0.625 0.078 0.953 0.078 0.453 0 0.906-0.063 1.328-0.172-2.312-0.469-4.047-2.5-4.047-4.953v-0.063c0.672 0.375 1.453 0.609 2.281 0.641-1.359-0.906-2.25-2.453-2.25-4.203 0-0.938 0.25-1.797 0.688-2.547 2.484 3.062 6.219 5.063 10.406 5.281-0.078-0.375-0.125-0.766-0.125-1.156 0-2.781 2.25-5.047 5.047-5.047 1.453 0 2.766 0.609 3.687 1.594 1.141-0.219 2.234-0.641 3.203-1.219-0.375 1.172-1.172 2.156-2.219 2.781 1.016-0.109 2-0.391 2.906-0.781z"></path>
        </symbol>
        <symbol id="icon-pinterest" viewBox="0 0 20 20">
            <title>pinterest</title>
            <path d="M8.617 13.227c-0.526 2.754-1.167 5.394-3.068 6.773-0.586-4.162 0.861-7.287 1.534-10.605-1.147-1.93 0.138-5.812 2.555-4.855 2.975 1.176-2.576 7.172 1.15 7.922 3.891 0.781 5.479-6.75 3.066-9.199-3.485-3.538-10.146-0.083-9.326 4.982 0.199 1.238 1.478 1.613 0.511 3.322-2.231-0.494-2.897-2.254-2.811-4.6 0.138-3.84 3.449-6.527 6.771-6.9 4.201-0.471 8.144 1.543 8.689 5.494 0.613 4.461-1.896 9.293-6.389 8.945-1.218-0.095-1.728-0.699-2.682-1.279z"></path>
        </symbol>
        <symbol id="icon-google-plus" viewBox="0 0 20 20">
            <title>google+</title>
            <path d="M1.989 5.589c0 1.494 0.499 2.572 1.482 3.205 0.806 0.52 1.74 0.598 2.226 0.598 0.118 0 0.213-0.006 0.279-0.010 0 0-0.154 1.004 0.59 1.996h-0.034c-1.289 0-5.493 0.269-5.493 3.727 0 3.516 3.861 3.695 4.636 3.695 0.061 0 0.097-0.002 0.097-0.002 0.008 0 0.063 0.002 0.158 0.002 0.497 0 1.782-0.062 2.975-0.643 1.548-0.75 2.333-2.059 2.333-3.885 0-1.764-1.196-2.814-2.069-3.582-0.533-0.469-0.994-0.873-0.994-1.266 0-0.4 0.337-0.701 0.762-1.082 0.689-0.615 1.339-1.492 1.339-3.15 0-1.457-0.189-2.436-1.354-3.057 0.121-0.062 0.551-0.107 0.763-0.137 0.631-0.086 1.554-0.184 1.554-0.699v-0.099h-4.599c-0.046 0.002-4.651 0.172-4.651 4.389zM9.413 14.602c0.088 1.406-1.115 2.443-2.922 2.574-1.835 0.135-3.345-0.691-3.433-2.096-0.043-0.676 0.254-1.336 0.835-1.863 0.589-0.533 1.398-0.863 2.278-0.928 0.104-0.006 0.207-0.012 0.31-0.012 1.699 0.001 2.849 0.999 2.932 2.325zM8.212 4.626c0.451 1.588-0.23 3.246-1.316 3.553-0.125 0.035-0.253 0.052-0.384 0.052-0.994 0-1.979-1.006-2.345-2.393-0.204-0.776-0.187-1.458 0.047-2.112 0.229-0.645 0.643-1.078 1.163-1.225 0.125-0.035 0.254-0.053 0.385-0.053 1.2 0 1.972 0.498 2.45 2.178zM16 8v-3h-2v3h-3v2h3v3h2v-3h3v-2h-3z"></path>
        </symbol>
        <symbol id="icon-youtube" viewBox="0 0 24 28">
            <title>youtube</title>
            <path d="M15.172 19.437v3.297c0 0.703-0.203 1.047-0.609 1.047-0.234 0-0.469-0.109-0.703-0.344v-4.703c0.234-0.234 0.469-0.344 0.703-0.344 0.406 0 0.609 0.359 0.609 1.047zM20.453 19.453v0.719h-1.406v-0.719c0-0.703 0.234-1.062 0.703-1.062s0.703 0.359 0.703 1.062zM5.359 16.047h1.672v-1.469h-4.875v1.469h1.641v8.891h1.563v-8.891zM9.859 24.938h1.391v-7.719h-1.391v5.906c-0.313 0.438-0.609 0.656-0.891 0.656-0.187 0-0.297-0.109-0.328-0.328-0.016-0.047-0.016-0.219-0.016-0.547v-5.688h-1.391v6.109c0 0.547 0.047 0.906 0.125 1.141 0.125 0.391 0.453 0.578 0.906 0.578 0.5 0 1.031-0.313 1.594-0.953v0.844zM16.562 22.625v-3.078c0-0.719-0.031-1.234-0.141-1.547-0.172-0.578-0.562-0.875-1.109-0.875-0.516 0-1 0.281-1.453 0.844v-3.391h-1.391v10.359h1.391v-0.75c0.469 0.578 0.953 0.859 1.453 0.859 0.547 0 0.938-0.297 1.109-0.859 0.109-0.328 0.141-0.844 0.141-1.563zM21.844 22.469v-0.203h-1.422c0 0.562-0.016 0.875-0.031 0.953-0.078 0.375-0.281 0.562-0.625 0.562-0.484 0-0.719-0.359-0.719-1.078v-1.359h2.797v-1.609c0-0.828-0.141-1.422-0.422-1.813-0.406-0.531-0.953-0.797-1.656-0.797-0.719 0-1.266 0.266-1.672 0.797-0.297 0.391-0.438 0.984-0.438 1.813v2.703c0 0.828 0.156 1.437 0.453 1.813 0.406 0.531 0.953 0.797 1.687 0.797s1.313-0.281 1.687-0.828c0.172-0.25 0.297-0.531 0.328-0.844 0.031-0.141 0.031-0.453 0.031-0.906zM12.344 8.203v-3.281c0-0.719-0.203-1.078-0.672-1.078-0.453 0-0.672 0.359-0.672 1.078v3.281c0 0.719 0.219 1.094 0.672 1.094 0.469 0 0.672-0.375 0.672-1.094zM23.578 19.938c0 1.797-0.016 3.719-0.406 5.469-0.297 1.234-1.297 2.141-2.5 2.266-2.875 0.328-5.781 0.328-8.672 0.328s-5.797 0-8.672-0.328c-1.203-0.125-2.219-1.031-2.5-2.266-0.406-1.75-0.406-3.672-0.406-5.469v0c0-1.813 0.016-3.719 0.406-5.469 0.297-1.234 1.297-2.141 2.516-2.281 2.859-0.313 5.766-0.313 8.656-0.313s5.797 0 8.672 0.313c1.203 0.141 2.219 1.047 2.5 2.281 0.406 1.75 0.406 3.656 0.406 5.469zM7.984 0h1.594l-1.891 6.234v4.234h-1.563v-4.234c-0.141-0.766-0.453-1.859-0.953-3.313-0.344-0.969-0.688-1.953-1.016-2.922h1.656l1.109 4.109zM13.766 5.203v2.734c0 0.828-0.141 1.453-0.438 1.844-0.391 0.531-0.938 0.797-1.656 0.797-0.703 0-1.25-0.266-1.641-0.797-0.297-0.406-0.438-1.016-0.438-1.844v-2.734c0-0.828 0.141-1.437 0.438-1.828 0.391-0.531 0.938-0.797 1.641-0.797 0.719 0 1.266 0.266 1.656 0.797 0.297 0.391 0.438 1 0.438 1.828zM19 2.672v7.797h-1.422v-0.859c-0.562 0.656-1.094 0.969-1.609 0.969-0.453 0-0.781-0.187-0.922-0.578-0.078-0.234-0.125-0.609-0.125-1.172v-6.156h1.422v5.734c0 0.328 0 0.516 0.016 0.547 0.031 0.219 0.141 0.344 0.328 0.344 0.281 0 0.578-0.219 0.891-0.672v-5.953h1.422z"></path>
        </symbol>
    </defs>
</svg>